<?xml version="1.0" encoding="UTF-8"?>
<svg version="1.1" xmlns="http://www.w3.org/2000/svg" width="500" height="500">
<path d="M0 0 C165 0 330 0 500 0 C500 165 500 330 500 500 C335 500 170 500 0 500 C0 335 0 170 0 0 Z " fill="#004AAD" transform="translate(0,0)"/>
<path d="M0 0 C0.72927704 0.00087616 1.45855408 0.00175232 2.20993042 0.00265503 C39.97871023 0.15233999 62.72895154 19.09115455 88.28686523 44.71899414 C90.63477056 47.072293 92.98801968 49.4201539 95.34179688 51.76757812 C96.85969597 53.28613758 98.37728506 54.80500696 99.89453125 56.32421875 C100.58633987 57.01400314 101.2781485 57.70378754 101.99092102 58.41447449 C105.89123182 62.33337191 109.61023092 66.34849224 113.19340515 70.56013489 C114.89312087 72.46536901 116.69422371 74.19853385 118.5625 75.9375 C128.354645 85.67271392 135.10130454 97.14232919 140.93798828 109.53857422 C142.24823271 112.29001435 143.63900571 114.99315545 145.0625 117.6875 C145.50078125 118.52925781 145.9390625 119.37101562 146.390625 120.23828125 C147.95773622 122.59325333 149.37515914 123.94638041 151.8125 125.375 C154.21334462 124.56527984 154.21334462 124.56527984 156.8125 123.375 C162.15477841 122.66941606 165.40738493 123.66232924 169.75 126.60546875 C174.43891692 130.62834634 180.34863262 136.55836967 181.12109375 142.9140625 C181.18490234 144.44160156 181.18490234 144.44160156 181.25 146 C181.31058594 147.00289062 181.37117188 148.00578125 181.43359375 149.0390625 C179.74151049 158.12735878 170.28769086 165.20815715 163.95336914 171.49487305 C162.24321636 173.19424086 160.54409749 174.90412345 158.84570312 176.61523438 C157.7506412 177.70897568 156.65495956 178.80209696 155.55859375 179.89453125 C155.05637802 180.40079544 154.55416229 180.90705963 154.03672791 181.42866516 C149.27513359 186.12782149 145.66399526 188.80376255 138.875 188.8125 C133.61326393 188.63903617 130.73086262 188.11525523 126.8125 184.375 C117.1025872 173.63524797 117.1025872 173.63524797 116.6953125 166.25 C117.32571177 161.36948953 118.80704669 158.38227107 121.8125 154.375 C122.50001933 153.05229845 123.17125802 151.7207455 123.8125 150.375 C118.43848313 143.014312 113.17506633 136.19959462 103.8125 134.375 C99.88740759 134.23481813 96.58980528 134.41981935 92.8125 135.375 C86.22443569 136.2722072 81.81413829 134.8107086 76.07421875 131.56640625 C73.8543319 130.3970358 72.29876161 129.66278115 69.8125 129.375 C67.94441556 130.50097353 67.94441556 130.50097353 66.25640869 132.32981873 C65.56936356 133.00999054 64.88231842 133.69016235 64.17445374 134.39094543 C63.43142502 135.15195053 62.6883963 135.91295563 61.92285156 136.69702148 C60.73691658 137.88186127 60.73691658 137.88186127 59.52702332 139.09063721 C56.90703869 141.71411551 54.3052222 144.35488248 51.703125 146.99609375 C49.89389212 148.81464829 48.08355485 150.63210472 46.27215576 152.44850159 C41.98828876 156.74953271 37.71574134 161.06151847 33.44843364 165.37897116 C28.59010124 170.29314984 23.7175991 175.19317377 18.84383821 180.09204376 C8.81751672 190.17065778 -1.1908315 200.26697776 -11.1875 210.375 C-10.70506836 211.78289795 -10.70506836 211.78289795 -10.21289062 213.21923828 C-8.57930009 218.24680764 -7.82861604 223.42691276 -10.109375 228.375 C-14.08425549 233.98659599 -19.41250567 238.69637674 -24.30859375 243.5 C-26.54501405 245.70838417 -28.65358967 247.97628512 -30.6875 250.375 C-34.16360577 254.4645362 -37.96999656 258.1846054 -41.78515625 261.953125 C-44.53075486 264.67808001 -47.18019952 267.42523473 -49.6875 270.375 C-53.16360577 274.4645362 -56.96999656 278.1846054 -60.78515625 281.953125 C-63.53075486 284.67808001 -66.18019952 287.42523473 -68.6875 290.375 C-72.16360577 294.4645362 -75.96999656 298.1846054 -79.78515625 301.953125 C-82.53075486 304.67808001 -85.18019952 307.42523473 -87.6875 310.375 C-91.16360577 314.4645362 -94.96999656 318.1846054 -98.78515625 321.953125 C-101.53075486 324.67808001 -104.18019952 327.42523473 -106.6875 330.375 C-110.16360577 334.4645362 -113.96999656 338.1846054 -117.78515625 341.953125 C-120.53075486 344.67808001 -123.18019952 347.42523473 -125.6875 350.375 C-130.07664946 355.53171008 -134.94930414 360.22414493 -139.77124023 364.97143555 C-141.16608283 366.35377481 -142.5422158 367.7549108 -143.91796875 369.15625 C-147.67468738 372.82891124 -150.8688217 373.50677901 -156 373.75 C-170.43887861 373.34477298 -180.89904243 358.86114035 -190.375 349.4375 C-191.33006572 348.50324252 -192.28514381 347.5689977 -193.24023438 346.63476562 C-209.23799604 330.72619008 -209.23799604 330.72619008 -209.5 321.625 C-209.55607422 320.36429687 -209.55607422 320.36429687 -209.61328125 319.078125 C-208.51079572 312.07885907 -202.26064707 307.17547997 -197.4375 302.4375 C-196.75945312 301.76009766 -196.08140625 301.08269531 -195.3828125 300.38476562 C-192.07933094 297.10954579 -188.7286991 293.93777283 -185.203125 290.90234375 C-180.80869265 287.10808191 -176.75370113 283.01526672 -172.6875 278.875 C-167.9941805 274.09619198 -163.24758022 269.50344906 -158.16992188 265.13476562 C-154.68478173 262.04105994 -151.44942574 258.70063522 -148.1875 255.375 C-144.30466293 251.41632627 -140.42409338 247.52441662 -136.21875 243.90625 C-131.81546818 240.11357952 -127.75763076 236.01926794 -123.6875 231.875 C-118.9941805 227.09619198 -114.24758022 222.50344906 -109.16992188 218.13476562 C-105.68478173 215.04105994 -102.44942574 211.70063522 -99.1875 208.375 C-95.30801842 204.41974729 -91.43238847 200.53219495 -87.2265625 196.921875 C-81.95349174 192.38296407 -77.18382761 187.35360614 -72.3671875 182.33984375 C-64.18500819 173.99461377 -64.18500819 173.99461377 -57.84375 173.01171875 C-57.1321875 173.02847656 -56.420625 173.04523438 -55.6875 173.0625 C-54.62015625 173.06830078 -54.62015625 173.06830078 -53.53125 173.07421875 C-50.59314444 173.45127563 -47.98291529 174.41377703 -45.1875 175.375 C-34.59096677 164.91854919 -24.01156996 154.44499805 -13.45242214 143.95079517 C-8.5493501 139.07867809 -3.64079436 134.21233406 1.28100586 129.35913086 C6.02786175 124.67840247 10.75892689 119.98224653 15.48063469 115.27612877 C17.28760523 113.48027296 19.09986159 111.68972004 20.91736031 109.90452003 C23.45579352 107.40943184 25.97503511 104.8964074 28.49047852 102.37817383 C29.63198616 101.26902367 29.63198616 101.26902367 30.79655457 100.13746643 C31.47672638 99.44904663 32.15689819 98.76062683 32.85768127 98.05134583 C33.75504674 97.16227649 33.75504674 97.16227649 34.67054081 96.25524616 C36.06981886 94.37590659 36.06981886 94.37590659 35.55967617 91.83272839 C35.00406586 90.00512831 34.41655504 88.18716511 33.8125 86.375 C33.33396334 81.27674401 33.47640283 76.74426383 35.3125 71.9375 C38.2488144 63.95746852 37.54817342 56.39414207 34.06640625 48.71484375 C24.91865607 31.64474295 7.35792218 22.64915413 -10.1875 16.375 C-10.85193115 16.10212158 -11.5163623 15.82924316 -12.20092773 15.5480957 C-18.73296627 13.03372348 -24.81327795 13.02443058 -31.75 13.1875 C-32.85408203 13.20103516 -33.95816406 13.21457031 -35.09570312 13.22851562 C-37.79349272 13.26355185 -40.49022636 13.31267409 -43.1875 13.375 C-42.1875 11.375 -42.1875 11.375 -39 10.25 C-35.55000398 9.45819763 -32.703207 9.2035021 -29.1875 9.375 C-29.1875 8.715 -29.1875 8.055 -29.1875 7.375 C-38.0975 8.365 -38.0975 8.365 -47.1875 9.375 C-47.1875 8.715 -47.1875 8.055 -47.1875 7.375 C-44.27263893 6.57615732 -41.3558589 5.78588182 -38.4375 5 C-37.63183594 4.77828125 -36.82617188 4.5565625 -35.99609375 4.328125 C-23.99555416 1.11538212 -12.37940792 -0.03637953 0 0 Z " fill="#FDFEFE" transform="translate(263.1875,62.625)"/>
<path d="M0 0 C165 0 330 0 500 0 C500 165 500 330 500 500 C335 500 170 500 0 500 C0 335 0 170 0 0 Z M11 11 C11 168.74 11 326.48 11 489 C168.74 489 326.48 489 489 489 C489 331.26 489 173.52 489 11 C331.26 11 173.52 11 11 11 Z " fill="#FFFFFF" transform="translate(0,0)"/>
<path d="M0 0 C-7.92 0.495 -7.92 0.495 -16 1 C-15 -1 -15 -1 -11.6875 -2.1875 C-6.37930233 -3.35710288 -4.84044323 -2.42022162 0 0 Z " fill="#BBCFE9" transform="translate(236,75)"/>
<path d="M0 0 C-3.00617269 3.00617269 -5.82381598 2.59585316 -10 3 C-10 2.34 -10 1.68 -10 1 C-3.71428571 -1.42857143 -3.71428571 -1.42857143 0 0 Z " fill="#D6E2F1" transform="translate(226,69)"/>
</svg>
